<svg width="113" height="32" viewBox="0 0 113 32" fill="none" xmlns="http://www.w3.org/2000/svg">
<path d="M1.92 25V7.72H5.184V21.952H12.624V25H1.92ZM18.888 25.384C17.872 25.384 17.044 25.212 16.404 24.868C15.764 24.524 15.266 24.088 14.91 23.56C14.554 23.032 14.3 22.482 14.148 21.91C13.996 21.338 13.904 20.816 13.872 20.344C13.84 19.872 13.824 19.528 13.824 19.312V12.04H17.136V18.16C17.136 18.456 17.152 18.834 17.184 19.294C17.216 19.754 17.316 20.216 17.484 20.68C17.652 21.144 17.926 21.532 18.306 21.844C18.686 22.156 19.224 22.312 19.92 22.312C20.2 22.312 20.5 22.268 20.82 22.18C21.14 22.092 21.44 21.922 21.72 21.67C22 21.418 22.23 21.046 22.41 20.554C22.59 20.062 22.68 19.416 22.68 18.616L24.552 19.504C24.552 20.528 24.344 21.488 23.928 22.384C23.512 23.28 22.886 24.004 22.05 24.556C21.214 25.108 20.16 25.384 18.888 25.384ZM23.088 25V20.704H22.68V12.04H25.968V25H23.088ZM27.288 25L31.92 18.448L27.384 12.04H31.224L33.816 15.88L36.36 12.04H40.2L35.664 18.448L40.32 25H36.48L33.816 21.016L31.128 25H27.288ZM47.184 25.36C45.856 25.36 44.686 25.074 43.674 24.502C42.662 23.93 41.87 23.142 41.298 22.138C40.726 21.134 40.44 19.984 40.44 18.688C40.44 17.272 40.72 16.04 41.28 14.992C41.84 13.944 42.612 13.13 43.596 12.55C44.58 11.97 45.712 11.68 46.992 11.68C48.352 11.68 49.508 12 50.46 12.64C51.412 13.28 52.116 14.18 52.572 15.34C53.028 16.5 53.188 17.864 53.052 19.432H49.824V18.232C49.824 16.912 49.614 15.962 49.194 15.382C48.774 14.802 48.088 14.512 47.136 14.512C46.024 14.512 45.206 14.85 44.682 15.526C44.158 16.202 43.896 17.2 43.896 18.52C43.896 19.728 44.158 20.662 44.682 21.322C45.206 21.982 45.976 22.312 46.992 22.312C47.632 22.312 48.18 22.172 48.636 21.892C49.092 21.612 49.44 21.208 49.68 20.68L52.944 21.616C52.456 22.8 51.686 23.72 50.634 24.376C49.582 25.032 48.432 25.36 47.184 25.36ZM42.888 19.432V17.008H51.48V19.432H42.888ZM55.152 25V7.72H60.744C60.88 7.72 61.16 7.724 61.584 7.732C62.008 7.74 62.416 7.768 62.808 7.816C64.2 7.984 65.38 8.468 66.348 9.268C67.316 10.068 68.052 11.084 68.556 12.316C69.06 13.548 69.312 14.896 69.312 16.36C69.312 17.824 69.06 19.172 68.556 20.404C68.052 21.636 67.316 22.652 66.348 23.452C65.38 24.252 64.2 24.736 62.808 24.904C62.416 24.952 62.008 24.98 61.584 24.988C61.16 24.996 60.88 25 60.744 25H55.152ZM58.464 21.928H60.744C60.96 21.928 61.252 21.922 61.62 21.91C61.988 21.898 62.32 21.864 62.616 21.808C63.368 21.656 63.982 21.304 64.458 20.752C64.934 20.2 65.286 19.536 65.514 18.76C65.742 17.984 65.856 17.184 65.856 16.36C65.856 15.496 65.738 14.676 65.502 13.9C65.266 13.124 64.908 12.468 64.428 11.932C63.948 11.396 63.344 11.056 62.616 10.912C62.32 10.848 61.988 10.812 61.62 10.804C61.252 10.796 60.96 10.792 60.744 10.792H58.464V21.928ZM71.592 25V12.04H74.472V15.208L74.16 14.8C74.328 14.352 74.552 13.944 74.832 13.576C75.112 13.208 75.456 12.904 75.864 12.664C76.176 12.472 76.516 12.322 76.884 12.214C77.252 12.106 77.632 12.038 78.024 12.01C78.416 11.982 78.808 11.992 79.2 12.04V15.088C78.84 14.976 78.422 14.938 77.946 14.974C77.47 15.01 77.04 15.12 76.656 15.304C76.272 15.48 75.948 15.714 75.684 16.006C75.42 16.298 75.22 16.642 75.084 17.038C74.948 17.434 74.88 17.88 74.88 18.376V25H71.592ZM81.12 10.24V7.36H84.384V10.24H81.12ZM81.12 25V12.04H84.384V25H81.12ZM90.888 25L86.184 12.04H89.448L92.52 21.016L95.592 12.04H98.856L94.152 25H90.888ZM105.96 25.36C104.632 25.36 103.462 25.074 102.45 24.502C101.438 23.93 100.646 23.142 100.074 22.138C99.502 21.134 99.216 19.984 99.216 18.688C99.216 17.272 99.496 16.04 100.056 14.992C100.616 13.944 101.388 13.13 102.372 12.55C103.356 11.97 104.488 11.68 105.768 11.68C107.128 11.68 108.284 12 109.236 12.64C110.188 13.28 110.892 14.18 111.348 15.34C111.804 16.5 111.964 17.864 111.828 19.432H108.6V18.232C108.6 16.912 108.39 15.962 107.97 15.382C107.55 14.802 106.864 14.512 105.912 14.512C104.8 14.512 103.982 14.85 103.458 15.526C102.934 16.202 102.672 17.2 102.672 18.52C102.672 19.728 102.934 20.662 103.458 21.322C103.982 21.982 104.752 22.312 105.768 22.312C106.408 22.312 106.956 22.172 107.412 21.892C107.868 21.612 108.216 21.208 108.456 20.68L111.72 21.616C111.232 22.8 110.462 23.72 109.41 24.376C108.358 25.032 107.208 25.36 105.96 25.36ZM101.664 19.432V17.008H110.256V19.432H101.664Z" fill="#4648D4"/>
</svg>
